<svg width="52" height="36" viewBox="0 0 52 36" fill="none" xmlns="http://www.w3.org/2000/svg">
<g clip-path="url(#clip0_356_135)">
<path d="M25.2007 7.11409C25.3302 7.10275 25.4602 7.09855 25.5901 7.1015C27.4715 7.13339 28.9996 8.12779 30.255 9.47381C30.7333 9.98737 31.1521 10.5521 31.6405 11.0573C29.8128 12.9085 28.94 14.5457 26.0659 14.9418C25.8107 14.956 25.5549 14.956 25.2998 14.9418C22.6984 14.8033 21.062 12.864 19.4575 11.0607C21.1661 9.20779 22.4433 7.37423 25.2007 7.11409Z" fill="white"/>
<path d="M45.3063 19.2949C45.3172 19.305 45.3298 19.3125 45.3399 19.3235C45.5547 19.5576 45.7485 19.827 45.9558 20.0745C46.7857 21.0496 47.5846 22.044 48.3952 23.0351C48.8652 23.6107 49.4618 24.1738 49.8394 24.809C49.9815 25.0519 50.0538 25.3292 50.0484 25.6104C50.0342 25.8955 49.9475 26.1722 49.7966 26.4144C49.2839 27.2535 48.522 28.0172 47.9018 28.7875C47.0769 29.8121 46.3074 30.9794 45.3659 31.8924C44.4889 30.7042 40.5659 26.6644 40.5298 25.6146C40.5307 25.2927 40.6214 24.9774 40.7916 24.7042C41.2892 23.8516 42.1645 22.9612 42.8056 22.2043C43.6364 21.2317 44.4428 20.2373 45.3063 19.2949Z" fill="#214EE6"/>
<path d="M5.59641 19.2178C6.13348 19.702 6.6118 20.333 7.09683 20.8751C8.00984 21.8955 9.24425 23.1652 9.99697 24.2754C10.1917 24.5616 10.4552 24.9904 10.4728 25.342C10.4929 25.7271 10.3049 26.1308 10.1128 26.4539C9.59418 27.3148 8.82718 28.0818 8.16005 28.8304C7.34327 29.749 6.53711 30.6768 5.74159 31.6139C5.68704 31.6701 5.72313 31.6457 5.62578 31.6734C5.61152 31.6642 5.59725 31.6567 5.58383 31.6466C5.33711 31.4603 4.84536 30.7646 4.62299 30.4961L2.42774 27.8301C2.05851 27.3778 1.63557 26.9221 1.31837 26.4346C1.13889 26.1727 1.02256 25.8728 0.978511 25.5585C0.946767 25.2389 1.01228 24.9171 1.16648 24.6354C1.51138 23.9641 2.12229 23.3683 2.60145 22.7892C3.59334 21.5918 4.61543 20.422 5.59641 19.2178Z" fill="#214EE6"/>
<path d="M4.5317 14.2939C5.35296 14.6856 6.15856 15.1077 6.94849 15.5602C7.73842 16.0128 8.51101 16.4925 9.26625 16.9994C10.0299 17.5102 10.7681 18.0559 11.4808 18.6366C13.0165 19.9012 16.8254 23.3468 17.1686 25.2567C17.2853 25.9054 16.8825 26.6321 16.5267 27.1499C14.0352 30.7893 9.05226 33.1079 4.81786 33.8875C5.70737 33.311 6.42737 32.5801 7.17674 31.8391C8.32387 30.6895 10.7214 28.2307 11.4565 26.9317C11.7015 26.4979 11.8895 26.0011 11.8895 25.4976C11.8895 24.9941 11.7107 24.4704 11.4548 24.0274C10.8078 22.9163 9.84779 22.0058 8.97926 21.0702C7.94205 19.9367 6.88471 18.8221 5.80723 17.7261C4.99324 18.5342 4.08779 19.2416 3.23856 20.0103C2.17031 20.977 1.14653 21.9932 0.0732422 22.9524C1.06513 20.1253 2.74681 16.6948 4.5317 14.2939Z" fill="#8E68FF"/>
<path d="M46.2553 14.0625C46.6917 14.5173 47.0467 15.166 47.3832 15.698C47.8962 16.5036 48.3806 17.3266 48.8366 18.1668C49.2925 19.0071 49.718 19.8628 50.1129 20.7338C50.4897 21.5403 50.8044 22.3719 51.2039 23.1674C50.1692 22.0261 49.022 20.9512 47.9085 19.8821C47.358 19.3517 46.8234 18.7551 46.2251 18.2835C46.0422 18.1391 45.8777 18.0183 45.6377 17.9847C45.302 17.9377 44.9043 17.9847 44.6307 18.2063C44.1608 18.5822 43.142 19.9761 42.6864 20.519L40.5885 22.9744C40.2025 23.4301 39.7778 23.8874 39.4564 24.3909C39.3029 24.6326 39.2231 24.9783 39.1971 25.2653C39.1499 25.6621 39.2078 26.0643 39.365 26.4317C39.777 27.312 40.7639 28.2972 41.3991 29.0549L43.7001 31.8175C44.6114 32.8438 45.2374 33.4429 46.5121 33.9892C46.0545 33.8991 45.5985 33.8035 45.1443 33.7022C41.3924 32.827 36.4279 30.1777 34.3694 26.8211C34.0573 26.3117 33.7342 25.6631 33.8936 25.0522C34.0715 24.3766 34.6069 23.7347 35.0232 23.1808C37.8461 19.4256 42.1904 16.3584 46.2553 14.0625Z" fill="#8E68FF"/>
<path d="M25.8117 0.00683594C26.431 0.108374 27.0562 0.198164 27.6704 0.326556C33.4606 1.53747 38.4788 5.00488 42.4741 9.2611C43.6741 10.54 44.8086 11.8625 45.7778 13.3277C44.5552 13.952 43.3073 14.5025 42.1023 15.1688C39.7199 16.4804 37.7261 18.157 35.8673 20.1198C34.716 21.3366 33.6738 22.5685 32.8413 24.0287C32.6752 24.3357 32.5548 24.6653 32.4838 25.0071C32.2883 26.124 33.0008 27.2687 33.6092 28.1405C35.7238 31.1724 39.7149 33.9534 43.1991 35.1316C43.9868 35.3838 44.7925 35.5762 45.6092 35.7073C43.7865 36.0102 41.311 36.0245 39.4632 35.8021C35.8237 35.3632 32.1776 33.7755 29.645 31.0894C29.3066 30.7385 28.9907 30.3665 28.6992 29.9758C28.4357 29.6149 28.21 29.2205 27.9306 28.8756C27.4078 28.2203 26.6836 27.7738 25.8411 27.6857C25.4657 27.6525 25.0875 27.6912 24.7266 27.7998C23.3513 28.1942 22.8083 29.3825 21.9977 30.4323C21.4633 31.1399 20.8451 31.7801 20.1566 32.3389C17.2044 34.7036 13.3392 35.9338 9.56972 35.9473C8.41168 35.9473 7.25616 35.8063 6.10567 35.6779C7.0128 35.4312 7.89644 35.1836 8.76916 34.8287C12.0419 33.4986 15.2651 31.2941 17.3655 28.4124C17.749 27.8846 18.1409 27.3156 18.3918 26.7123C18.5549 26.3351 18.6385 25.9284 18.6375 25.5175C18.6365 25.1067 18.5508 24.7004 18.3859 24.324C17.1104 21.2535 12.996 17.6947 10.2108 16.0046C8.55769 15.0035 6.8542 14.2424 5.06763 13.5148C5.35882 13.1003 5.64245 12.6798 5.94539 12.2737C9.66875 7.279 15.0721 2.87509 21.0444 0.93243C22.3133 0.532424 23.6139 0.241301 24.9322 0.0622209L25.0363 0.0529888C25.0321 0.0655762 25.0363 0.0806829 25.0237 0.091592C24.8945 0.249354 24.0352 0.679003 23.8145 0.813268C22.8813 1.37215 21.9599 1.98809 21.0729 2.61579C16.9149 5.57467 13.4139 9.30474 10.2713 13.2983C11.1943 13.446 12.078 13.78 12.9566 14.077C16.7966 15.3719 19.0371 16.9 21.5899 20.0628C22.3896 21.0538 23.1004 22.5677 24.2978 23.0502C24.7643 23.2293 25.266 23.2977 25.7634 23.2501C26.2608 23.2025 26.7404 23.0401 27.1644 22.7758C28.2914 22.0701 28.8184 20.6191 29.6122 19.592C31.9325 16.5895 34.8075 15.0907 38.2992 13.8521C39.0226 13.5954 39.9264 13.4535 40.5809 13.1733C39.8701 12.0245 38.9152 10.9822 38.029 9.96768C35.7927 7.40572 33.3297 5.0225 30.5706 3.02614C29.0492 1.92935 27.4313 0.949213 25.8117 0.00683594Z" fill="#7546FF"/>
</g>
<defs>
<clipPath id="clip0_356_135">
<rect width="51.2727" height="36" fill="white" transform="translate(0 0.00683594)"/>
</clipPath>
</defs>
</svg>
