<svg width="17" height="17" viewBox="0 0 17 17" fill="none" xmlns="http://www.w3.org/2000/svg">
<path d="M3.38118 7.8279C3.10504 7.82868 2.83477 7.90762 2.60162 8.05559C2.36848 8.20356 2.18199 8.41452 2.06374 8.66406C1.94548 8.9136 1.90029 9.19151 1.9334 9.46566C1.96651 9.73981 2.07656 9.99898 2.25081 10.2132L5.96558 14.7638C6.09803 14.9282 6.26781 15.0587 6.46082 15.1444C6.65383 15.2301 6.86449 15.2685 7.07531 15.2564C7.5262 15.2321 7.93328 14.9909 8.19281 14.5944L15.9093 2.16692C15.9106 2.16486 15.9119 2.1628 15.9133 2.16077C15.9857 2.0496 15.9622 1.82929 15.8128 1.69089C15.7717 1.65288 15.7233 1.62368 15.6705 1.60509C15.6178 1.58649 15.5618 1.5789 15.5059 1.58277C15.4501 1.58664 15.3957 1.6019 15.346 1.6276C15.2963 1.6533 15.2524 1.6889 15.217 1.73221C15.2142 1.73562 15.2114 1.73897 15.2084 1.74227L7.42623 10.535C7.39662 10.5685 7.36065 10.5957 7.32042 10.6152C7.28019 10.6346 7.2365 10.6459 7.19189 10.6483C7.14727 10.6507 7.10262 10.6442 7.06053 10.6292C7.01843 10.6142 6.97974 10.591 6.94669 10.5609L4.36392 8.21061C4.09568 7.96472 3.74508 7.82818 3.38118 7.8279Z" fill="#7546FF"/>
</svg>
