<svg width="395" height="468" viewBox="0 0 395 468" fill="none" xmlns="http://www.w3.org/2000/svg">
<mask id="path-1-inside-1_356_66" fill="white">
<path d="M35.001 268.476L32.5617 264.351C31.8138 264.88 31.1905 265.25 30.6434 265.717C20.9871 274.081 12.7929 283.576 7.94169 295.56C-1.08513 317.844 5.66816 345.056 23.7442 358.934C33.4404 366.383 44.7158 369.854 56.708 371.296C68.9482 372.769 80.782 371.18 92.2095 366.53C98.5988 363.932 103.962 360.05 108.774 355.205C109.727 354.244 112.329 353.241 112.638 353.591C114.229 355.4 112.021 356.344 111.058 357.347C101.638 367.173 89.6393 371.849 76.5054 373.968C60.5508 376.542 45.1209 374.471 30.7094 367.176C11.7733 357.59 2.13696 341.802 0.81073 320.775C-0.449435 300.785 7.32343 284.403 20.8213 270.268C23.5049 267.457 26.4553 264.9 29.2149 262.159C29.7397 261.637 30.3367 260.723 30.2308 260.109C29.4106 255.505 31.5607 252.145 34.9174 249.581C37.8429 247.346 41.2158 245.699 44.2933 243.646C45.0025 243.173 45.789 242.062 45.7255 241.318C45.4064 237.792 47.2461 235.667 49.8948 233.806C70.3317 219.443 90.754 205.059 111.162 190.655C115.275 187.755 119.315 184.746 123.469 181.906C125.138 180.764 125.495 179.671 124.829 177.684C122.669 171.285 121.828 164.517 122.356 157.786C123.244 146.323 127.448 137.023 139.14 132.804C138.256 118.564 148.459 108.469 163.135 109.409C162.293 102.488 163.304 96.0316 169.425 91.7506C175.446 87.5379 182.036 88.4715 188.739 90.8715C189.093 89.7206 189.387 88.7608 189.685 87.8023C193.513 75.472 207.827 70.7862 218.26 78.468C222.643 81.6962 225.782 85.9325 228.079 90.8132C228.802 92.3491 229.45 93.9172 230.234 95.7064C230.866 95.3674 231.441 95.129 231.938 94.7826C242.921 87.117 253.856 79.3868 264.901 71.813C267.23 70.2163 268.039 68.3117 268.515 65.5951C272.406 43.4102 281.78 24.3803 300.991 11.2566C321.512 -2.76356 347.918 -3.43526 367.985 9.48977C396.913 28.1224 402.983 67.9156 381.085 95.5859C368.197 111.871 350.796 119.48 330.512 121.263C324.552 121.787 318.537 121.646 312.554 121.943C311.199 122.01 309.703 122.358 308.559 123.049C300.341 127.999 292.245 133.152 283.994 138.044C282.155 139.132 281.875 140.195 282.17 142.117C283.634 151.666 284.856 161.253 286.351 170.798C287.458 177.875 286.188 184.507 283.58 191.073C277.878 205.42 269.189 217.918 259.803 230.029C255.096 236.1 250.535 242.286 245.981 248.473C240.995 255.249 238.647 262.953 238.205 271.282C236.289 307.424 237.949 531.119 236.035 567.26C236.016 567.62 235.94 567.978 235.777 569.173C232.624 565.805 231.15 562.496 231.337 558.496C231.61 552.628 230.946 380.671 231.254 374.805C232.51 350.868 231.147 305.466 232.51 281.535C232.884 274.928 233.374 268.277 234.557 261.781C236.16 252.973 241.525 245.935 246.725 238.881C254.657 228.122 262.724 217.445 270.214 206.384C273.691 201.251 276.083 195.362 278.718 189.7C281.677 183.341 282.332 176.663 281.162 169.711C278.958 156.638 277.277 143.469 274.779 130.455C272.535 118.769 264.881 113.962 253.205 116.756C241.474 119.564 229.897 123.026 218.258 126.193C209.252 128.645 208.951 136.421 211.87 141.848C215.753 149.068 222.091 152.435 230.044 152.598C233.794 152.675 237.587 151.84 241.323 151.197C244.751 150.606 247.671 149.168 250.048 146.334C251.869 144.157 254.455 142.616 256.702 140.792L257.372 141.356C256.634 142.496 255.896 143.635 255.158 144.774C253.354 147.557 251.43 150.271 249.768 153.135C246.675 158.467 247.003 163.747 250.159 169.02C251.859 171.879 253.243 174.914 254.286 178.07C248.516 171.839 240.407 166.779 243.291 156.644L223.919 157.977C224.021 162.139 222.599 166.195 219.919 169.389C216.967 172.929 213.29 175.012 208.625 174.864C204.42 186.278 200.378 188.414 189.126 185.28C183.456 195.271 174.524 197.665 164.362 191.832C161.322 190.086 158.407 188.127 154.72 185.817C155.517 186.977 155.787 187.645 156.278 188.041C160.1 191.124 163.7 194.595 167.878 197.105C174.083 200.83 180.851 201.173 187.073 197.067C194.823 191.95 202.239 186.333 209.884 181.05C217.77 175.594 225.743 170.264 233.699 164.909C234.946 164.069 236.317 163.401 237.611 162.66C239.811 166.152 239.72 166.325 236.529 168.504C228.926 173.697 221.275 178.839 213.795 184.209C196.883 196.35 191.982 213.262 194.692 233.042C195.138 236.305 195.881 239.527 196.518 242.938C189.497 238.124 185.549 216.577 194.742 198.409C192.862 199.447 191.357 200.263 189.867 201.104C184.285 204.261 178.459 205.698 172.059 203.931C171.209 203.697 169.967 204.036 169.181 204.535C160.68 209.93 152.203 215.365 143.814 220.931C142.899 221.54 141.994 223.084 142.081 224.112C142.444 228.426 142.655 232.871 143.922 236.959C145.543 242.174 148.105 247.091 150.291 252.124C153.282 259.021 158.935 261.897 166.12 262.319C172.29 262.681 178.468 262.94 184.64 263.248C185.569 263.273 186.49 263.415 187.383 263.67C175.971 267.031 164.572 269.601 152.997 263.56C152.872 263.925 152.663 264.236 152.661 264.554C152.563 280.074 149.094 295.199 147.177 310.505C144.415 332.588 123.706 524.39 120.979 546.478C120.335 551.687 118.735 556.39 114.538 560.204C114.663 558.03 114.663 555.839 114.949 553.683C119.509 518.647 142.073 313.9 146.483 278.845C147.318 272.201 147.095 265.423 147.304 258.706C147.319 257.947 147.141 257.198 146.788 256.526C141.737 247.132 137.588 237.433 136.621 226.204C131.425 229.588 126.595 232.739 121.76 235.883C105.037 246.755 88.2694 257.562 71.6218 268.552C68.5131 270.603 65.8694 270.786 63.1459 268.375C61.7461 267.134 60.7427 267.577 59.4402 268.538C57.0794 270.276 54.66 271.982 52.1073 273.424C47.7983 275.861 43.4494 275.518 39.5181 272.602C37.9339 271.426 36.9604 271.733 35.5893 272.726C22.7645 282.064 15.833 294.913 12.8079 310.177C6.16051 343.718 33.398 363.104 56.0311 364.808C78.6381 366.504 96.7117 358.319 110.454 340.449C111.599 338.959 112.73 337.459 114.35 336.26C113.437 337.733 112.598 339.258 111.601 340.672C101.878 354.464 89.3302 364.12 72.3373 367.276C49.6518 371.497 27.8974 362.744 15.6934 344.493C7.17262 331.751 6.92332 317.965 10.816 303.809C14.6501 289.862 22.2921 278.329 33.8754 269.484C34.2319 269.19 34.5585 268.866 35.001 268.476ZM335.479 5.04733C332.532 5.40243 328.693 5.53529 325.009 6.36219C301.069 11.7396 286.089 26.8746 278.017 49.4854C277.276 51.5588 277.625 52.9966 278.968 54.633C285.533 62.6198 292.041 70.6513 298.491 78.7275C307.984 90.5637 317.404 102.459 326.948 114.255C327.796 115.302 329.395 116.543 330.533 116.442C352.346 114.523 370.383 105.65 381.646 86.3559C392.08 68.4769 392.442 49.838 382.145 31.6871C372.179 14.1085 356.367 5.87051 335.479 5.04733ZM164.559 201.5C164.336 201.138 164.277 200.935 164.142 200.844C163.519 200.413 162.86 200.032 162.238 199.602C156.393 195.541 150.748 191.035 148.558 184.093C147.521 180.803 145.625 179.091 143.222 177.288C142.071 176.426 141.238 176.327 139.966 177.209C111.485 196.973 82.9824 216.71 54.4594 236.418C50.6103 239.085 50.3548 239.809 51.8892 244.24C54.2699 251.118 58.6026 256.748 63.8028 261.708C68.5755 266.262 67.147 265.877 72.1478 262.593C97.3162 246.068 122.435 229.465 147.503 212.787L164.559 201.5ZM275.973 58.554L274.962 58.8147C274.476 62.1298 273.768 65.4325 273.582 68.7649C273.458 71.0855 272.676 72.5642 270.752 73.8778C259.925 81.2604 249.173 88.7596 238.401 96.234C236.158 97.7898 233.97 99.415 231.814 100.966L237.325 115.382C242.962 114.044 248.187 112.597 253.497 111.584C266.489 109.101 275.902 114.998 279.497 127.669C280.085 129.743 280.554 131.85 281.179 134.347C290.036 128.775 298.604 123.336 307.242 118.01C308.352 117.325 309.82 116.974 311.143 116.918C314.674 116.77 318.217 116.867 322.4 116.867L275.973 58.554ZM206.464 123.971C205.972 123.058 205.575 122.309 205.168 121.564C202.081 115.91 198.971 110.265 195.91 104.597C192.316 97.94 186.722 94.4362 179.181 94.0203C175.192 93.8005 171.731 94.9651 169.832 98.7048C167.733 102.843 166.901 107.148 169.74 111.375C177.622 123.096 185.625 134.735 193.379 146.537C198.209 153.889 202.643 161.497 207.361 168.925C207.773 169.574 209.004 170.114 209.799 170.048C213.891 169.713 217.402 166.233 218.369 161.684C219.107 158.228 218.483 155.53 215.429 152.946C212.032 150.072 208.777 146.565 206.731 142.67C202.285 134.198 205.804 125.769 214.751 122.373C219.445 120.592 224.357 119.38 229.171 117.904C230.118 117.614 231.063 117.316 232.366 116.91C229.075 108.258 226.109 99.8731 222.686 91.6786C220.634 86.7631 217.099 82.8831 211.993 80.7525C204.14 77.4822 195.304 82.749 194.582 91.1819C194.484 92.3379 194.682 93.716 195.251 94.6982C199.614 102.227 204.165 109.651 208.532 117.179C210.863 121.204 210.752 121.267 206.464 123.971ZM161.259 114.579C151.047 114.461 143.629 121.835 144.642 130.393C144.758 131.376 145.371 132.504 146.11 133.173C148.135 135.003 150.577 136.41 152.456 138.364C162.847 149.172 173.163 160.051 183.404 171.003C185.201 172.923 186.769 175.115 188.13 177.367C190.151 180.71 194.51 182.617 198.108 181.419C201.562 180.269 203.731 176.778 202.605 172.703C201.612 169.166 200.084 165.801 198.073 162.723C188.468 148.047 178.525 133.59 168.966 118.884C166.777 115.515 164.073 114.457 161.259 114.576V114.579ZM137.577 172.497L133.214 166.022L133.794 165.418C134.716 165.957 135.675 166.443 136.556 167.041C146.059 173.497 155.502 180.054 165.081 186.391C167.385 187.885 169.922 188.987 172.588 189.652C176.963 190.756 181.088 189.088 182.911 186.038C184.801 182.874 184.283 179.361 180.859 175.71C170.018 164.151 159.103 152.659 148.115 141.236C143.657 136.621 139.832 136.577 134.952 140.812C133.265 142.276 131.669 144.086 130.681 146.062C125.512 156.397 126.817 166.893 130.122 177.809L137.577 172.497ZM57.9582 263.575L47.0953 247.86C46.158 248.378 44.9152 249.018 43.7211 249.736C41.5349 251.054 39.3125 252.326 37.2259 253.789C35.3076 255.134 34.5398 257.083 35.7501 259.233C37.3169 262.018 38.8749 264.872 40.8929 267.325C43.6576 270.686 47.4206 271.05 51.0441 268.642C53.4784 267.025 55.7669 265.192 57.9607 263.573L57.9582 263.575Z"/>
</mask>
<path d="M35.001 268.476L32.5617 264.351C31.8138 264.88 31.1905 265.25 30.6434 265.717C20.9871 274.081 12.7929 283.576 7.94169 295.56C-1.08513 317.844 5.66816 345.056 23.7442 358.934C33.4404 366.383 44.7158 369.854 56.708 371.296C68.9482 372.769 80.782 371.18 92.2095 366.53C98.5988 363.932 103.962 360.05 108.774 355.205C109.727 354.244 112.329 353.241 112.638 353.591C114.229 355.4 112.021 356.344 111.058 357.347C101.638 367.173 89.6393 371.849 76.5054 373.968C60.5508 376.542 45.1209 374.471 30.7094 367.176C11.7733 357.59 2.13696 341.802 0.81073 320.775C-0.449435 300.785 7.32343 284.403 20.8213 270.268C23.5049 267.457 26.4553 264.9 29.2149 262.159C29.7397 261.637 30.3367 260.723 30.2308 260.109C29.4106 255.505 31.5607 252.145 34.9174 249.581C37.8429 247.346 41.2158 245.699 44.2933 243.646C45.0025 243.173 45.789 242.062 45.7255 241.318C45.4064 237.792 47.2461 235.667 49.8948 233.806C70.3317 219.443 90.754 205.059 111.162 190.655C115.275 187.755 119.315 184.746 123.469 181.906C125.138 180.764 125.495 179.671 124.829 177.684C122.669 171.285 121.828 164.517 122.356 157.786C123.244 146.323 127.448 137.023 139.14 132.804C138.256 118.564 148.459 108.469 163.135 109.409C162.293 102.488 163.304 96.0316 169.425 91.7506C175.446 87.5379 182.036 88.4715 188.739 90.8715C189.093 89.7206 189.387 88.7608 189.685 87.8023C193.513 75.472 207.827 70.7862 218.26 78.468C222.643 81.6962 225.782 85.9325 228.079 90.8132C228.802 92.3491 229.45 93.9172 230.234 95.7064C230.866 95.3674 231.441 95.129 231.938 94.7826C242.921 87.117 253.856 79.3868 264.901 71.813C267.23 70.2163 268.039 68.3117 268.515 65.5951C272.406 43.4102 281.78 24.3803 300.991 11.2566C321.512 -2.76356 347.918 -3.43526 367.985 9.48977C396.913 28.1224 402.983 67.9156 381.085 95.5859C368.197 111.871 350.796 119.48 330.512 121.263C324.552 121.787 318.537 121.646 312.554 121.943C311.199 122.01 309.703 122.358 308.559 123.049C300.341 127.999 292.245 133.152 283.994 138.044C282.155 139.132 281.875 140.195 282.17 142.117C283.634 151.666 284.856 161.253 286.351 170.798C287.458 177.875 286.188 184.507 283.58 191.073C277.878 205.42 269.189 217.918 259.803 230.029C255.096 236.1 250.535 242.286 245.981 248.473C240.995 255.249 238.647 262.953 238.205 271.282C236.289 307.424 237.949 531.119 236.035 567.26C236.016 567.62 235.94 567.978 235.777 569.173C232.624 565.805 231.15 562.496 231.337 558.496C231.61 552.628 230.946 380.671 231.254 374.805C232.51 350.868 231.147 305.466 232.51 281.535C232.884 274.928 233.374 268.277 234.557 261.781C236.16 252.973 241.525 245.935 246.725 238.881C254.657 228.122 262.724 217.445 270.214 206.384C273.691 201.251 276.083 195.362 278.718 189.7C281.677 183.341 282.332 176.663 281.162 169.711C278.958 156.638 277.277 143.469 274.779 130.455C272.535 118.769 264.881 113.962 253.205 116.756C241.474 119.564 229.897 123.026 218.258 126.193C209.252 128.645 208.951 136.421 211.87 141.848C215.753 149.068 222.091 152.435 230.044 152.598C233.794 152.675 237.587 151.84 241.323 151.197C244.751 150.606 247.671 149.168 250.048 146.334C251.869 144.157 254.455 142.616 256.702 140.792L257.372 141.356C256.634 142.496 255.896 143.635 255.158 144.774C253.354 147.557 251.43 150.271 249.768 153.135C246.675 158.467 247.003 163.747 250.159 169.02C251.859 171.879 253.243 174.914 254.286 178.07C248.516 171.839 240.407 166.779 243.291 156.644L223.919 157.977C224.021 162.139 222.599 166.195 219.919 169.389C216.967 172.929 213.29 175.012 208.625 174.864C204.42 186.278 200.378 188.414 189.126 185.28C183.456 195.271 174.524 197.665 164.362 191.832C161.322 190.086 158.407 188.127 154.72 185.817C155.517 186.977 155.787 187.645 156.278 188.041C160.1 191.124 163.7 194.595 167.878 197.105C174.083 200.83 180.851 201.173 187.073 197.067C194.823 191.95 202.239 186.333 209.884 181.05C217.77 175.594 225.743 170.264 233.699 164.909C234.946 164.069 236.317 163.401 237.611 162.66C239.811 166.152 239.72 166.325 236.529 168.504C228.926 173.697 221.275 178.839 213.795 184.209C196.883 196.35 191.982 213.262 194.692 233.042C195.138 236.305 195.881 239.527 196.518 242.938C189.497 238.124 185.549 216.577 194.742 198.409C192.862 199.447 191.357 200.263 189.867 201.104C184.285 204.261 178.459 205.698 172.059 203.931C171.209 203.697 169.967 204.036 169.181 204.535C160.68 209.93 152.203 215.365 143.814 220.931C142.899 221.54 141.994 223.084 142.081 224.112C142.444 228.426 142.655 232.871 143.922 236.959C145.543 242.174 148.105 247.091 150.291 252.124C153.282 259.021 158.935 261.897 166.12 262.319C172.29 262.681 178.468 262.94 184.64 263.248C185.569 263.273 186.49 263.415 187.383 263.67C175.971 267.031 164.572 269.601 152.997 263.56C152.872 263.925 152.663 264.236 152.661 264.554C152.563 280.074 149.094 295.199 147.177 310.505C144.415 332.588 123.706 524.39 120.979 546.478C120.335 551.687 118.735 556.39 114.538 560.204C114.663 558.03 114.663 555.839 114.949 553.683C119.509 518.647 142.073 313.9 146.483 278.845C147.318 272.201 147.095 265.423 147.304 258.706C147.319 257.947 147.141 257.198 146.788 256.526C141.737 247.132 137.588 237.433 136.621 226.204C131.425 229.588 126.595 232.739 121.76 235.883C105.037 246.755 88.2694 257.562 71.6218 268.552C68.5131 270.603 65.8694 270.786 63.1459 268.375C61.7461 267.134 60.7427 267.577 59.4402 268.538C57.0794 270.276 54.66 271.982 52.1073 273.424C47.7983 275.861 43.4494 275.518 39.5181 272.602C37.9339 271.426 36.9604 271.733 35.5893 272.726C22.7645 282.064 15.833 294.913 12.8079 310.177C6.16051 343.718 33.398 363.104 56.0311 364.808C78.6381 366.504 96.7117 358.319 110.454 340.449C111.599 338.959 112.73 337.459 114.35 336.26C113.437 337.733 112.598 339.258 111.601 340.672C101.878 354.464 89.3302 364.12 72.3373 367.276C49.6518 371.497 27.8974 362.744 15.6934 344.493C7.17262 331.751 6.92332 317.965 10.816 303.809C14.6501 289.862 22.2921 278.329 33.8754 269.484C34.2319 269.19 34.5585 268.866 35.001 268.476ZM335.479 5.04733C332.532 5.40243 328.693 5.53529 325.009 6.36219C301.069 11.7396 286.089 26.8746 278.017 49.4854C277.276 51.5588 277.625 52.9966 278.968 54.633C285.533 62.6198 292.041 70.6513 298.491 78.7275C307.984 90.5637 317.404 102.459 326.948 114.255C327.796 115.302 329.395 116.543 330.533 116.442C352.346 114.523 370.383 105.65 381.646 86.3559C392.08 68.4769 392.442 49.838 382.145 31.6871C372.179 14.1085 356.367 5.87051 335.479 5.04733ZM164.559 201.5C164.336 201.138 164.277 200.935 164.142 200.844C163.519 200.413 162.86 200.032 162.238 199.602C156.393 195.541 150.748 191.035 148.558 184.093C147.521 180.803 145.625 179.091 143.222 177.288C142.071 176.426 141.238 176.327 139.966 177.209C111.485 196.973 82.9824 216.71 54.4594 236.418C50.6103 239.085 50.3548 239.809 51.8892 244.24C54.2699 251.118 58.6026 256.748 63.8028 261.708C68.5755 266.262 67.147 265.877 72.1478 262.593C97.3162 246.068 122.435 229.465 147.503 212.787L164.559 201.5ZM275.973 58.554L274.962 58.8147C274.476 62.1298 273.768 65.4325 273.582 68.7649C273.458 71.0855 272.676 72.5642 270.752 73.8778C259.925 81.2604 249.173 88.7596 238.401 96.234C236.158 97.7898 233.97 99.415 231.814 100.966L237.325 115.382C242.962 114.044 248.187 112.597 253.497 111.584C266.489 109.101 275.902 114.998 279.497 127.669C280.085 129.743 280.554 131.85 281.179 134.347C290.036 128.775 298.604 123.336 307.242 118.01C308.352 117.325 309.82 116.974 311.143 116.918C314.674 116.77 318.217 116.867 322.4 116.867L275.973 58.554ZM206.464 123.971C205.972 123.058 205.575 122.309 205.168 121.564C202.081 115.91 198.971 110.265 195.91 104.597C192.316 97.94 186.722 94.4362 179.181 94.0203C175.192 93.8005 171.731 94.9651 169.832 98.7048C167.733 102.843 166.901 107.148 169.74 111.375C177.622 123.096 185.625 134.735 193.379 146.537C198.209 153.889 202.643 161.497 207.361 168.925C207.773 169.574 209.004 170.114 209.799 170.048C213.891 169.713 217.402 166.233 218.369 161.684C219.107 158.228 218.483 155.53 215.429 152.946C212.032 150.072 208.777 146.565 206.731 142.67C202.285 134.198 205.804 125.769 214.751 122.373C219.445 120.592 224.357 119.38 229.171 117.904C230.118 117.614 231.063 117.316 232.366 116.91C229.075 108.258 226.109 99.8731 222.686 91.6786C220.634 86.7631 217.099 82.8831 211.993 80.7525C204.14 77.4822 195.304 82.749 194.582 91.1819C194.484 92.3379 194.682 93.716 195.251 94.6982C199.614 102.227 204.165 109.651 208.532 117.179C210.863 121.204 210.752 121.267 206.464 123.971ZM161.259 114.579C151.047 114.461 143.629 121.835 144.642 130.393C144.758 131.376 145.371 132.504 146.11 133.173C148.135 135.003 150.577 136.41 152.456 138.364C162.847 149.172 173.163 160.051 183.404 171.003C185.201 172.923 186.769 175.115 188.13 177.367C190.151 180.71 194.51 182.617 198.108 181.419C201.562 180.269 203.731 176.778 202.605 172.703C201.612 169.166 200.084 165.801 198.073 162.723C188.468 148.047 178.525 133.59 168.966 118.884C166.777 115.515 164.073 114.457 161.259 114.576V114.579ZM137.577 172.497L133.214 166.022L133.794 165.418C134.716 165.957 135.675 166.443 136.556 167.041C146.059 173.497 155.502 180.054 165.081 186.391C167.385 187.885 169.922 188.987 172.588 189.652C176.963 190.756 181.088 189.088 182.911 186.038C184.801 182.874 184.283 179.361 180.859 175.71C170.018 164.151 159.103 152.659 148.115 141.236C143.657 136.621 139.832 136.577 134.952 140.812C133.265 142.276 131.669 144.086 130.681 146.062C125.512 156.397 126.817 166.893 130.122 177.809L137.577 172.497ZM57.9582 263.575L47.0953 247.86C46.158 248.378 44.9152 249.018 43.7211 249.736C41.5349 251.054 39.3125 252.326 37.2259 253.789C35.3076 255.134 34.5398 257.083 35.7501 259.233C37.3169 262.018 38.8749 264.872 40.8929 267.325C43.6576 270.686 47.4206 271.05 51.0441 268.642C53.4784 267.025 55.7669 265.192 57.9607 263.573L57.9582 263.575Z" fill="url(#paint0_linear_356_66)" stroke="#000006" stroke-width="3" mask="url(#path-1-inside-1_356_66)"/>
<path d="M235.249 173.312C223.077 179.446 213.435 188.505 207.029 200.813L206.699 201.455C200.468 213.752 199.398 226.669 202.019 239.783C202.002 239.739 201.984 239.695 201.968 239.65C201.419 238.173 200.931 236.721 200.601 235.257L200.469 234.628C196.654 214.837 202.538 198.268 217.279 184.873L217.987 184.237C220.947 181.618 224.262 179.362 227.665 177.173L231.088 174.996C232.435 174.142 233.848 173.543 235.249 173.312Z" fill="url(#paint1_linear_356_66)" stroke="#000006" stroke-width="2"/>
<path d="M158.105 273.646C161.641 275.937 165.607 275.96 169.245 275.962L171.04 275.972C176.817 276.065 182.578 276.139 188.344 276.226L194.113 276.317C194.543 276.325 194.964 276.356 195.39 276.394C195.228 276.455 195.07 276.517 194.914 276.574C194.185 276.843 193.483 277.078 192.782 277.238L192.482 277.303C182.183 279.342 171.745 278.887 161.191 278.463H161.192C160.925 278.452 160.455 278.261 159.915 277.831C159.463 277.47 159.079 277.034 158.846 276.651L158.755 276.491V276.49C158.346 275.698 158.185 274.759 158.105 273.646Z" fill="url(#paint2_linear_356_66)" stroke="#000006" stroke-width="2"/>
<path d="M214.312 289.745C214.514 292.901 214.574 296.851 214.51 301.278C214.404 308.588 213.968 317.149 213.317 325.469C212.666 333.789 211.801 341.86 210.837 348.19C210.355 351.356 209.849 354.079 209.335 356.176C209.222 356.636 209.108 357.065 208.995 357.461C210.791 334.586 212.554 312.15 214.312 289.745Z" fill="url(#paint3_linear_356_66)" stroke="#000006"/>
<path d="M171.656 283.378C171.843 309.065 168.931 334.49 165.051 359.851L164.764 359.825L171.656 283.378Z" fill="url(#paint4_linear_356_66)" stroke="#000006"/>
<path d="M276.935 170.172C276.195 179.77 276.058 189.291 270.226 197.506L269.807 197.424L276.935 170.172Z" fill="url(#paint5_linear_356_66)" stroke="#000006"/>
<path d="M229.471 134.516C225.869 135.523 222.27 136.525 218.661 137.493L215.929 138.219L215.928 138.22C215.384 138.363 215.166 138.308 215.109 138.285C215.09 138.278 215.031 138.259 214.947 138.065C214.849 137.842 214.777 137.519 214.698 137.04C214.673 136.89 214.646 136.725 214.618 136.55L229.471 134.516Z" fill="url(#paint6_linear_356_66)" stroke="#000006" stroke-width="2"/>
<mask id="path-8-inside-2_356_66" fill="white">
<path d="M227.133 128.631C236.335 124.466 246.095 121.652 256.107 120.275C256.174 120.503 256.241 120.729 256.308 120.955L227.326 129.423C227.263 129.159 227.198 128.896 227.133 128.631Z"/>
</mask>
<path d="M227.133 128.631C236.335 124.466 246.095 121.652 256.107 120.275C256.174 120.503 256.241 120.729 256.308 120.955L227.326 129.423C227.263 129.159 227.198 128.896 227.133 128.631Z" fill="url(#paint7_linear_356_66)"/>
<path d="M227.133 128.631L226.309 126.809L224.795 127.494L225.191 129.107L227.133 128.631ZM256.107 120.275L258.025 119.707L257.537 118.06L255.835 118.294L256.107 120.275ZM256.308 120.955L256.869 122.874L258.799 122.31L258.225 120.384L256.308 120.955ZM227.326 129.423L225.382 129.891L225.872 131.932L227.887 131.343L227.326 129.423ZM227.958 130.453C236.984 126.368 246.558 123.607 256.379 122.257L255.835 118.294C245.632 119.696 235.686 122.565 226.309 126.809L227.958 130.453ZM254.189 120.843C254.253 121.059 254.324 121.301 254.391 121.525L258.225 120.384C258.157 120.157 258.095 119.946 258.025 119.707L254.189 120.843ZM255.747 119.035L226.765 127.504L227.887 131.343L256.869 122.874L255.747 119.035ZM229.271 128.956C229.206 128.686 229.14 128.417 229.076 128.155L225.191 129.107C225.256 129.375 225.32 129.632 225.382 129.891L229.271 128.956Z" fill="#000006" mask="url(#path-8-inside-2_356_66)"/>
<path d="M62.1028 237.091C63.7954 235.886 65.7788 234.516 67.9905 233.017C75.0193 228.251 84.3252 222.217 93.8948 216.183C103.464 210.148 113.29 204.119 121.358 199.364C121.916 199.035 122.466 198.715 123.005 198.399L62.1028 237.091Z" fill="url(#paint8_linear_356_66)" stroke="#000006" stroke-width="2"/>
<path d="M70.5991 258.412C70.8621 258.103 71.11 257.86 71.3667 257.684L71.5122 257.591C72.9105 256.776 74.3118 255.967 75.7144 255.16L70.5991 258.412Z" fill="url(#paint9_linear_356_66)" stroke="#000006" stroke-width="2"/>
<path d="M280.255 78.0557C283.345 84.7931 287.124 90.8343 291.785 96.3701V96.3691C296.005 101.385 300.798 105.702 306.281 109.511C300.871 106.579 295.412 101.924 290.806 96.5146C287.264 92.3543 284.269 87.7978 282.224 83.333C281.403 81.5391 280.741 79.7697 280.255 78.0557Z" fill="url(#paint10_linear_356_66)" stroke="#000006" stroke-width="2"/>
<path d="M284.187 120.864C285.094 118.966 286.382 117.818 287.878 117.073C289.013 116.508 290.292 116.161 291.677 115.929L284.187 120.864Z" fill="url(#paint11_linear_356_66)" stroke="#000006" stroke-width="2"/>
<path d="M204.167 84.3652C205.363 83.9189 206.672 83.8693 207.898 84.2246V84.2256L207.908 84.2275C209.966 84.8011 211.614 85.7606 212.933 87.1465C213.703 87.9561 214.373 88.9276 214.949 90.0811C213.041 88.858 211.285 87.7224 209.518 86.6924L208.429 86.0723C206.898 85.2237 205.433 84.7571 204.087 85.2422C202.831 85.6947 202.009 86.858 201.361 88.3379L201.234 88.6377L201.233 88.6396C200.749 89.8236 200.371 91.0767 199.994 92.4004C199.909 91.8468 199.878 91.3132 199.897 90.7969C199.948 89.4771 200.338 88.2148 201.104 86.9551L201.262 86.7031L201.264 86.7002C201.91 85.6979 202.845 84.9149 203.944 84.4531L204.167 84.3652Z" fill="url(#paint12_linear_356_66)" stroke="#000006" stroke-width="2"/>
<path d="M156.92 119.97C157.843 119.636 158.872 119.584 159.987 119.872C158.368 120.035 156.766 120.335 155.259 120.942C155.794 120.497 156.352 120.175 156.92 119.97Z" fill="url(#paint13_linear_356_66)" stroke="#000006" stroke-width="2"/>
<mask id="path-16-inside-3_356_66" fill="white">
<path d="M143.172 144.323L135.027 147.761C136.214 142.719 139.806 141.229 143.172 144.323Z"/>
</mask>
<path d="M143.172 144.323L135.027 147.761C136.214 142.719 139.806 141.229 143.172 144.323Z" fill="url(#paint14_linear_356_66)"/>
<path d="M143.172 144.323L143.949 146.166L146.815 144.956L144.525 142.851L143.172 144.323ZM135.027 147.761L133.081 147.303L132.179 151.135L135.805 149.604L135.027 147.761ZM142.394 142.481L134.25 145.919L135.805 149.604L143.949 146.166L142.394 142.481ZM136.974 148.219C137.492 146.02 138.417 145.104 139.057 144.835C139.577 144.617 140.506 144.589 141.818 145.796L144.525 142.851C142.472 140.963 139.922 140.134 137.508 141.147C135.214 142.11 133.749 144.461 133.081 147.303L136.974 148.219Z" fill="#000006" mask="url(#path-16-inside-3_356_66)"/>
<defs>
<linearGradient id="paint0_linear_356_66" x1="197.473" y1="0.248047" x2="197.473" y2="569.173" gradientUnits="userSpaceOnUse">
<stop stop-color="#7546FF"/>
<stop offset="0.63" stop-color="#000006"/>
</linearGradient>
<linearGradient id="paint1_linear_356_66" x1="218.682" y1="172.202" x2="218.682" y2="245.11" gradientUnits="userSpaceOnUse">
<stop stop-color="#7546FF"/>
<stop offset="0.63" stop-color="#000006"/>
</linearGradient>
<linearGradient id="paint2_linear_356_66" x1="177.412" y1="271.529" x2="177.412" y2="279.826" gradientUnits="userSpaceOnUse">
<stop stop-color="#7546FF"/>
<stop offset="0.63" stop-color="#000006"/>
</linearGradient>
<linearGradient id="paint3_linear_356_66" x1="211.641" y1="284.561" x2="211.641" y2="360.597" gradientUnits="userSpaceOnUse">
<stop stop-color="#7546FF"/>
<stop offset="0.63" stop-color="#000006"/>
</linearGradient>
<linearGradient id="paint4_linear_356_66" x1="168.194" y1="282.061" x2="168.194" y2="360.389" gradientUnits="userSpaceOnUse">
<stop stop-color="#7546FF"/>
<stop offset="0.63" stop-color="#000006"/>
</linearGradient>
<linearGradient id="paint5_linear_356_66" x1="273.378" y1="168.387" x2="273.378" y2="198.058" gradientUnits="userSpaceOnUse">
<stop stop-color="#7546FF"/>
<stop offset="0.63" stop-color="#000006"/>
</linearGradient>
<linearGradient id="paint6_linear_356_66" x1="225.726" y1="132.357" x2="225.726" y2="139.315" gradientUnits="userSpaceOnUse">
<stop stop-color="#7546FF"/>
<stop offset="0.63" stop-color="#000006"/>
</linearGradient>
<linearGradient id="paint7_linear_356_66" x1="241.721" y1="120.275" x2="241.721" y2="129.423" gradientUnits="userSpaceOnUse">
<stop stop-color="#7546FF"/>
<stop offset="0.63" stop-color="#000006"/>
</linearGradient>
<linearGradient id="paint8_linear_356_66" x1="96.671" y1="189.312" x2="96.671" y2="242.295" gradientUnits="userSpaceOnUse">
<stop stop-color="#7546FF"/>
<stop offset="0.63" stop-color="#000006"/>
</linearGradient>
<linearGradient id="paint9_linear_356_66" x1="82.13" y1="242.744" x2="82.13" y2="260.601" gradientUnits="userSpaceOnUse">
<stop stop-color="#7546FF"/>
<stop offset="0.63" stop-color="#000006"/>
</linearGradient>
<linearGradient id="paint10_linear_356_66" x1="296.558" y1="70.7695" x2="296.558" y2="113.605" gradientUnits="userSpaceOnUse">
<stop stop-color="#7546FF"/>
<stop offset="0.63" stop-color="#000006"/>
</linearGradient>
<linearGradient id="paint11_linear_356_66" x1="288.993" y1="114.498" x2="288.993" y2="123.294" gradientUnits="userSpaceOnUse">
<stop stop-color="#7546FF"/>
<stop offset="0.63" stop-color="#000006"/>
</linearGradient>
<linearGradient id="paint12_linear_356_66" x1="207.946" y1="82.9902" x2="207.946" y2="95.904" gradientUnits="userSpaceOnUse">
<stop stop-color="#7546FF"/>
<stop offset="0.63" stop-color="#000006"/>
</linearGradient>
<linearGradient id="paint13_linear_356_66" x1="157.524" y1="118.682" x2="157.524" y2="125.139" gradientUnits="userSpaceOnUse">
<stop stop-color="#7546FF"/>
<stop offset="0.63" stop-color="#000006"/>
</linearGradient>
<linearGradient id="paint14_linear_356_66" x1="139.1" y1="142.715" x2="139.1" y2="147.761" gradientUnits="userSpaceOnUse">
<stop stop-color="#7546FF"/>
<stop offset="0.63" stop-color="#000006"/>
</linearGradient>
</defs>
</svg>
