<svg width="32" height="30" viewBox="0 0 32 30" fill="none" xmlns="http://www.w3.org/2000/svg">
<path d="M4.20435 23.834C5.79197 23.8342 7.07446 25.1108 7.07446 26.667C7.07436 28.2232 5.79121 29.5 4.20337 29.5C2.71482 29.4999 1.49459 28.3777 1.3479 26.9551L1.33325 26.667C1.33325 25.1107 2.61644 23.834 4.20435 23.834ZM16.0002 23.834C17.5872 23.8342 18.8704 25.1108 18.8704 26.667C18.8703 28.2231 17.5871 29.4998 16.0002 29.5C14.5117 29.5 13.2915 28.3777 13.1448 26.9551L13.1301 26.667C13.1301 25.1107 14.4124 23.834 16.0002 23.834ZM27.7961 23.834C29.3832 23.834 30.6663 25.1107 30.6663 26.667C30.6662 28.2232 29.3832 29.5 27.7961 29.5C26.3083 29.4999 25.0874 28.3776 24.9407 26.9551L24.926 26.667C24.926 25.1108 26.2091 23.8341 27.7961 23.834ZM4.20435 12.167C5.79204 12.1672 7.07446 13.4431 7.07446 15C7.07446 16.5563 5.79128 17.833 4.20337 17.833C2.61559 17.8329 1.33325 16.5563 1.33325 15C1.33325 13.443 2.61636 12.167 4.20435 12.167ZM16.0002 12.167C17.5873 12.1672 18.8704 13.4431 18.8704 15C18.8704 16.5562 17.5872 17.8328 16.0002 17.833C14.5116 17.833 13.2914 16.7108 13.1448 15.2881L13.1301 15C13.1301 13.4429 14.4123 12.167 16.0002 12.167ZM27.7961 12.167C29.3833 12.167 30.6663 13.443 30.6663 15C30.6663 16.5563 29.3832 17.833 27.7961 17.833C26.3083 17.8329 25.0873 16.7107 24.9407 15.2881L24.926 15C24.926 13.4431 26.2091 12.1671 27.7961 12.167ZM4.20337 0.5C5.79128 0.5 7.07349 1.77692 7.07349 3.33398C7.07328 4.89087 5.79115 6.16699 4.20337 6.16699C2.71477 6.16693 1.49461 5.04519 1.3479 3.62207L1.33325 3.33398C1.33325 1.77696 2.61552 0.500063 4.20337 0.5ZM16.0002 0.5C17.5872 0.500174 18.8703 1.77622 18.8704 3.33301C18.8704 4.88996 17.5872 6.16682 16.0002 6.16699C14.5116 6.16699 13.2915 5.04521 13.1448 3.62207L13.1301 3.33398C13.1301 1.77684 14.4124 0.5 16.0002 0.5ZM27.7961 0.5C29.3833 0.5 30.6663 1.777 30.6663 3.33398C30.666 4.8908 29.3832 6.16699 27.7961 6.16699C26.3083 6.16689 25.0875 5.04511 24.9407 3.62207L24.926 3.33398C24.926 1.77707 26.2091 0.500111 27.7961 0.5Z" fill="white" stroke="#131313"/>
</svg>
