<svg width="32" height="32" viewBox="0 0 32 32" fill="none" xmlns="http://www.w3.org/2000/svg">
<path fill-rule="evenodd" clip-rule="evenodd" d="M17 4.33105L17 27.6641L15 27.6641L15 4.33105L17 4.33105Z" fill="#7546FF"/>
<path fill-rule="evenodd" clip-rule="evenodd" d="M15.0001 5.3312C15.0001 10.0346 19.1363 13.878 23.5469 13.878L24.5469 13.878L24.5469 11.8779L23.5469 11.8779C20.1981 11.8779 17.0001 8.88772 17.0001 5.3312L17.0001 4.33105L15.0001 4.33105L15.0001 5.3312Z" fill="#7546FF"/>
<path fill-rule="evenodd" clip-rule="evenodd" d="M17 5.3312C17 10.0346 12.8639 13.878 8.45333 13.878L7.45333 13.878L7.45333 11.8779L8.45333 11.8779C11.802 11.8779 15 8.88772 15 5.3312L15 4.33105L17 4.33105L17 5.3312Z" fill="#7546FF"/>
</svg>
